<svg width="60" height="60" viewBox="0 0 60 60" fill="none" xmlns="http://www.w3.org/2000/svg">
<rect width="60" height="60" fill="#FFEC87"/>
<g clip-path="url(#clip0)">
<path d="M46.5154 20.7827C45.643 20.7827 44.9333 20.0731 44.9333 19.2006C44.9333 18.933 44.7164 18.7162 44.4489 18.7162C44.1813 18.7162 43.9645 18.933 43.9645 19.2006C43.9645 20.073 43.2548 20.7827 42.3823 20.7827C42.1148 20.7827 41.8979 20.9996 41.8979 21.2671C41.8979 21.5347 42.1148 21.7515 42.3823 21.7515C43.2548 21.7515 43.9645 22.4612 43.9645 23.3337C43.9645 23.6012 44.1813 23.818 44.4489 23.818C44.7164 23.818 44.9333 23.6012 44.9333 23.3337C44.9333 22.4612 45.6429 21.7515 46.5154 21.7515C46.783 21.7515 46.9998 21.5347 46.9998 21.2671C46.9998 20.9996 46.783 20.7827 46.5154 20.7827ZM44.4489 21.8397C44.2896 21.62 44.096 21.4264 43.8763 21.2671C44.0961 21.1078 44.2897 20.9142 44.4489 20.6945C44.6083 20.9142 44.8019 21.1078 45.0216 21.2671C44.8018 21.4264 44.6083 21.6201 44.4489 21.8397Z" fill="#1F1C1C"/>
<path d="M18.6172 20.7827C17.7449 20.7827 17.035 20.0731 17.035 19.2006C17.035 18.933 16.8182 18.7162 16.5507 18.7162C16.2832 18.7162 16.0663 18.933 16.0663 19.2006C16.0663 20.073 15.3565 20.7827 14.4841 20.7827C14.2166 20.7827 13.9998 20.9996 13.9998 21.2671C13.9998 21.5347 14.2166 21.7515 14.4841 21.7515C15.3565 21.7515 16.0663 22.4612 16.0663 23.3337C16.0663 23.6012 16.2832 23.818 16.5507 23.818C16.8182 23.818 17.035 23.6012 17.035 23.3337C17.035 22.4612 17.7449 21.7515 18.6172 21.7515C18.8847 21.7515 19.1016 21.5347 19.1016 21.2671C19.1016 20.9996 18.8847 20.7827 18.6172 20.7827ZM16.5507 21.8397C16.3914 21.62 16.1978 21.4264 15.9781 21.2671C16.1979 21.1078 16.3914 20.9142 16.5507 20.6945C16.71 20.9142 16.9036 21.1078 17.1233 21.2671C16.9036 21.4264 16.71 21.6201 16.5507 21.8397Z" fill="#1F1C1C"/>
<path d="M33.0834 14.5832C31.926 14.5832 30.9845 13.6417 30.9845 12.4843C30.9846 12.2168 30.7677 12 30.5002 12C30.2327 12 30.0158 12.2168 30.0158 12.4844C30.0158 13.6417 29.0742 14.5832 27.917 14.5832C27.6495 14.5832 27.4326 14.8 27.4326 15.0676C27.4326 15.3351 27.6495 15.5519 27.917 15.5519C29.0742 15.5519 30.0158 16.4935 30.0158 17.6508C30.0158 17.9183 30.2327 18.1352 30.5002 18.1352C30.7677 18.1352 30.9846 17.9183 30.9846 17.6508C30.9846 16.4935 31.9261 15.5519 33.0834 15.5519C33.351 15.5519 33.5678 15.3351 33.5678 15.0676C33.5678 14.8 33.3509 14.5832 33.0834 14.5832ZM30.5002 15.9978C30.2608 15.625 29.9427 15.307 29.5698 15.0675C29.9427 14.8281 30.2608 14.51 30.5002 14.1372C30.7396 14.51 31.0577 14.8281 31.4305 15.0675C31.0577 15.307 30.7396 15.625 30.5002 15.9978Z" fill="#1F1C1C"/>
<path d="M40.5841 28.3388L38.7 23.0005C38.559 22.601 38.1796 22.3326 37.756 22.3326H23.1147C22.6911 22.3326 22.3118 22.601 22.1708 23.0004L20.2867 28.3388C20.1773 28.6489 20.4151 28.9843 20.7435 28.9843H40.1273C40.2845 28.9843 40.4319 28.908 40.5226 28.7798C40.6134 28.6514 40.6364 28.487 40.5841 28.3388ZM21.428 28.0156L23.0843 23.3228C23.0886 23.3104 23.1015 23.3013 23.1147 23.3013H37.756C37.7693 23.3013 37.7821 23.3104 37.7865 23.3229L39.4428 28.0156H21.428Z" fill="#1F1C1C"/>
<path d="M39.7348 34.7319C38.0146 34.7319 36.6672 35.6255 36.6672 36.7662C36.6672 37.9069 38.0146 38.8005 39.7348 38.8005C41.4549 38.8005 42.8023 37.9069 42.8023 36.7662C42.8023 35.6255 41.4549 34.7319 39.7348 34.7319ZM39.7348 37.8317C38.5335 37.8317 37.6359 37.2692 37.6359 36.7662C37.6359 36.2632 38.5334 35.7007 39.7348 35.7007C40.936 35.7007 41.8336 36.2632 41.8336 36.7662C41.8336 37.2692 40.936 37.8317 39.7348 37.8317Z" fill="#1F1C1C"/>
<path d="M21.1361 34.7319C19.416 34.7319 18.0686 35.6255 18.0686 36.7662C18.0686 37.9069 19.416 38.8005 21.1361 38.8005C22.8562 38.8005 24.2036 37.9069 24.2036 36.7662C24.2036 35.6255 22.8562 34.7319 21.1361 34.7319ZM21.1361 37.8317C19.9349 37.8317 19.0373 37.2692 19.0373 36.7662C19.0373 36.2632 19.9348 35.7007 21.1361 35.7007C22.3374 35.7007 23.235 36.2632 23.235 36.7662C23.235 37.2692 22.3374 37.8317 21.1361 37.8317Z" fill="#1F1C1C"/>
<path d="M45.9344 27.499H43.3512C43.129 27.499 42.9352 27.6503 42.8813 27.8659L42.5411 29.2268L40.1614 22.4847C39.8022 21.4668 38.8355 20.7828 37.756 20.7828H23.1147C22.0351 20.7828 21.0685 21.4668 20.7092 22.4847L18.3296 29.2269L17.9893 27.8659C17.9354 27.6503 17.7417 27.499 17.5195 27.499H14.9363C14.6688 27.499 14.4519 27.7159 14.4519 27.9834V30.05C14.4519 30.3175 14.6688 30.5343 14.9363 30.5343H17.6115L15.9603 32.846C15.6495 33.2811 15.4852 33.7939 15.4852 34.3287V40.3826C15.4852 41.2215 15.8924 41.967 16.5193 42.4321C16.5191 42.4378 16.5185 42.4434 16.5185 42.4491V43.999C16.5185 44.551 16.9675 45 17.5194 45H20.6192C21.1712 45 21.6202 44.551 21.6202 43.999V42.9335H39.2503V43.999C39.2503 44.551 39.6994 45 40.2513 45H43.3511C43.903 45 44.352 44.551 44.352 43.999V42.4491C44.352 42.4434 44.3514 42.4378 44.3512 42.4321C44.9781 41.967 45.3853 41.2215 45.3853 40.3826V34.3287C45.3853 33.7939 45.2209 33.2811 44.9101 32.846L43.2589 30.5343H45.9342C46.2018 30.5343 46.4186 30.3175 46.4186 30.05V27.9834C46.4187 27.7158 46.2019 27.499 45.9344 27.499ZM15.4206 29.5655V28.4677H17.1413L17.4157 29.5655H15.4206ZM20.6516 43.999C20.6516 44.0168 20.6371 44.0313 20.6193 44.0313H17.5195C17.5017 44.0313 17.4872 44.0168 17.4872 43.999V42.9335H18.0361H20.6516V43.999ZM43.3834 43.999C43.3834 44.0168 43.3689 44.0313 43.3511 44.0313H40.2513C40.2335 44.0313 40.219 44.0168 40.219 43.999V42.9335H42.8345H43.3834V43.999ZM42.8345 41.9648H18.0361C17.3326 41.9648 16.7351 41.5032 16.53 40.867H44.3406C44.1355 41.5032 43.538 41.9648 42.8345 41.9648ZM34.6007 36.7339V37.8317H26.27V36.7339H34.6007ZM26.3461 35.7652C26.5512 35.1289 27.1486 34.6673 27.8522 34.6673H33.0185C33.722 34.6673 34.3195 35.1289 34.5246 35.7652H26.3461ZM34.6007 38.8004V39.8982H26.27V38.8004H34.6007ZM44.1221 33.409C44.3148 33.6789 44.4167 33.9969 44.4167 34.3286V39.8983H35.5694V36.2495C35.5694 34.843 34.425 33.6987 33.0185 33.6987H27.8522C26.4456 33.6987 25.3013 34.843 25.3013 36.2495V39.8983H16.4539V34.3286C16.4539 33.9969 16.5558 33.6789 16.7486 33.409L18.802 30.5343H36.6349C36.9024 30.5343 37.1192 30.3175 37.1192 30.0499C37.1192 29.7824 36.9024 29.5655 36.6349 29.5655H19.2373L21.6226 22.8071C21.8455 22.1757 22.4451 21.7514 23.1147 21.7514H37.756C38.4256 21.7514 39.0251 22.1757 39.2481 22.8071L41.6333 29.5655H38.7014C38.4339 29.5655 38.2171 29.7824 38.2171 30.0499C38.2171 30.3175 38.4339 30.5343 38.7014 30.5343H42.0686L44.1221 33.409ZM45.45 29.5655H43.4548L43.7293 28.4677H45.45V29.5655Z" fill="#1F1C1C"/>
<path d="M22.6857 33.182H19.5859C19.3184 33.182 19.1016 33.3988 19.1016 33.6664C19.1016 33.9339 19.3184 34.1507 19.5859 34.1507H22.6857C22.9532 34.1507 23.1701 33.9339 23.1701 33.6664C23.1701 33.3988 22.9532 33.182 22.6857 33.182Z" fill="#1F1C1C"/>
<path d="M41.2849 33.182H38.1851C37.9175 33.182 37.7007 33.3988 37.7007 33.6664C37.7007 33.9339 37.9175 34.1507 38.1851 34.1507H41.2849C41.5524 34.1507 41.7692 33.9339 41.7692 33.6664C41.7692 33.3988 41.5524 33.182 41.2849 33.182Z" fill="#1F1C1C"/>
</g>
<defs>
<clipPath id="clip0">
<rect width="33" height="33" fill="white" transform="translate(14 12)"/>
</clipPath>
</defs>
</svg>
