<svg width="60" height="60" viewBox="0 0 60 60" fill="none" xmlns="http://www.w3.org/2000/svg">
<rect width="60" height="60" fill="#FFEC87"/>
<path d="M46.8102 28.6745C46.4935 27.6541 45.5273 26.9728 44.4592 27.0156L44.2314 27.0249C43.5631 27.0522 42.9346 27.3276 42.4637 27.7984L38.9418 31.2834C38.8584 31.156 38.7626 31.0348 38.6537 30.9218C38.1907 30.4406 37.542 30.165 36.8743 30.165H31.9065C30.9692 30.165 30.0552 30.0434 29.1894 29.8039C26.9346 29.1798 24.7831 29.6303 22.9674 31.1068C22.2014 31.7299 21.6508 32.4099 21.3131 32.8904C20.9306 32.6245 20.4756 32.485 20.0036 32.4929C19.405 32.5032 18.8466 32.746 18.4316 33.1774L15.2206 36.5106C14.9834 36.7567 14.9883 37.1479 15.2319 37.3882L17.8141 39.9352C18.0594 40.1771 18.455 40.1745 18.6972 39.929C18.939 39.6835 18.9365 39.2884 18.691 39.0462L16.548 36.9326L19.3308 34.0435C19.5139 33.8534 19.7604 33.746 20.0244 33.7418C20.2909 33.7369 20.5382 33.8361 20.7279 34.02L25.693 38.8382C25.8823 39.022 25.9887 39.2683 25.9924 39.5321C25.9961 39.7961 25.8967 40.0454 25.7124 40.2345L22.9779 43.0403L22.2742 42.37C22.0244 42.1321 21.6292 42.1418 21.3913 42.3916C21.1538 42.6414 21.1635 43.0366 21.4133 43.2741L22.5637 44.37C22.6847 44.485 22.8395 44.5422 22.9942 44.5422C23.1568 44.5422 23.3191 44.479 23.4415 44.3537L26.6068 41.1059C27.0241 40.6778 27.2492 40.1127 27.241 39.515C27.2371 39.2417 27.1842 38.9765 27.0873 38.7294L28.2023 38.5997C28.7196 38.5395 29.2459 38.5088 29.7667 38.5088H37.3255C37.4413 38.5088 37.5584 38.5039 37.6737 38.4942L38.3981 38.4339C39.1323 38.373 39.8399 38.1182 40.4447 37.6975C40.7416 37.4909 41.0109 37.2466 41.2451 36.9709L46.3386 30.9784C46.8829 30.3381 47.059 29.477 46.8102 28.6745ZM45.3872 30.1696L40.2935 36.1621C40.1292 36.3555 39.9401 36.5271 39.7315 36.6723C39.3068 36.9678 38.8097 37.1466 38.2945 37.1896L37.5699 37.2499C37.4891 37.2567 37.4066 37.2602 37.3255 37.2602H29.7667C29.1978 37.2602 28.6229 37.2935 28.0581 37.359L26.2527 37.5691L22.2586 33.7178C22.5306 33.3147 23.0304 32.6649 23.7553 32.0756C25.2654 30.8478 26.9815 30.4883 28.8564 31.0072C29.8305 31.2768 30.8567 31.4134 31.9065 31.4134H36.8743C37.2045 31.4134 37.5253 31.55 37.7545 31.7877C37.922 31.9616 38.0282 32.1748 38.072 32.3984C38.0712 32.4548 38.0782 32.511 38.0928 32.5657C38.1093 32.8585 38.0216 33.1569 37.8267 33.3995L37.8074 33.4237C37.5745 33.7139 37.2273 33.8807 36.8549 33.8807H32.53C32.1851 33.8807 31.9057 34.16 31.9057 34.5048C31.9057 34.8497 32.1851 35.1293 32.53 35.1293H36.8549C37.608 35.1293 38.3101 34.7923 38.7815 34.2046L38.8008 34.1807C39.1619 33.7309 39.3408 33.1865 39.3426 32.6433L43.3441 28.6837C43.5951 28.4329 43.9281 28.2868 44.2824 28.2724L44.5104 28.2632C45.0139 28.2418 45.4686 28.5638 45.6176 29.0445C45.7392 29.4364 45.653 29.857 45.3872 30.1696Z" fill="#1F1C1C"/>
<path d="M20.0105 35.0585C19.0782 35.0585 18.3198 35.817 18.3198 36.7491C18.3198 37.6816 19.0782 38.4401 20.0105 38.4401C20.9427 38.4401 21.7013 37.6816 21.7013 36.7491C21.7013 35.817 20.9427 35.0585 20.0105 35.0585ZM20.0105 37.1913C19.7667 37.1913 19.5682 36.9931 19.5682 36.7491C19.5682 36.5055 19.7667 36.3073 20.0105 36.3073C20.254 36.3073 20.4525 36.5055 20.4525 36.7491C20.4525 36.9931 20.254 37.1913 20.0105 37.1913Z" fill="#1F1C1C"/>
<path d="M29.8771 33.9727L29.845 33.9803C29.5094 34.0591 29.3009 34.3953 29.3801 34.7309C29.4474 35.0184 29.704 35.2126 29.9873 35.2126C30.0343 35.2126 30.0826 35.2069 30.1304 35.1956L30.1627 35.1882C30.4983 35.1094 30.7065 34.7733 30.6277 34.4377C30.5489 34.1021 30.2129 33.8943 29.8771 33.9727Z" fill="#1F1C1C"/>
<path d="M19.93 40.5804L19.8977 40.588C19.5621 40.667 19.3539 41.0028 19.4327 41.3384C19.5002 41.6261 19.7566 41.8201 20.0399 41.8201C20.0873 41.8201 20.1352 41.8148 20.1834 41.8035L20.2155 41.7961C20.5511 41.7173 20.7595 41.3812 20.6805 41.0456C20.6017 40.7098 20.2655 40.5018 19.93 40.5804Z" fill="#1F1C1C"/>
<path d="M33.3186 28.5522C36.9621 28.5522 39.9263 25.588 39.9263 21.9445C39.9263 18.301 36.9621 15.3366 33.3186 15.3366C31.8241 15.3366 30.4144 15.8234 29.2418 16.744C28.9739 16.9541 28.7204 17.1868 28.4881 17.4358C28.1407 17.808 27.8362 18.2202 27.5835 18.6605C27.0125 19.6556 26.7109 20.7914 26.7109 21.9445C26.7109 25.588 29.6751 28.5522 33.3186 28.5522ZM28.6665 19.2819C28.8716 18.9245 29.1185 18.5901 29.4008 18.2879C29.5893 18.0856 29.7953 17.8969 30.0126 17.7263C30.9636 16.98 32.1068 16.5854 33.3186 16.5854C36.2734 16.5854 38.6777 18.9893 38.6777 21.9445C38.6777 24.8995 36.2734 27.3035 33.3186 27.3035C30.3636 27.3035 27.9594 24.8995 27.9594 21.9445C27.9594 21.0089 28.2039 20.0883 28.6665 19.2819Z" fill="#1F1C1C"/>
<path d="M33.8725 24.0814C33.6207 24.231 33.2937 24.2841 33.0719 24.2841C32.6509 24.2841 32.2818 23.788 32.2818 23.2227C32.2818 22.8779 32.0023 22.5984 31.6575 22.5984C31.3126 22.5984 31.0332 22.8779 31.0332 23.2227C31.0332 24.304 31.6919 25.2137 32.5787 25.4641C32.5989 25.7907 32.8694 26.0497 33.2011 26.0497C33.5417 26.0497 33.8182 25.7767 33.8248 25.4374C34.7265 25.2034 35.5047 24.532 35.5047 23.3587C35.5047 21.9519 34.0682 21.1844 33.3304 21.1844C33.3211 21.1844 32.4046 21.1029 32.4046 20.5167C32.4046 19.6165 33.3211 19.5912 33.3304 19.5912C33.504 19.5912 33.7151 19.6943 33.8814 19.8607C33.9614 19.9408 33.9699 19.9492 33.9699 20.2858C33.9699 20.6305 34.2497 20.9087 34.5942 20.9087C34.939 20.9087 35.2187 20.6282 35.2187 20.2832C35.2187 19.8842 35.2187 19.4321 34.7645 18.9776C34.4913 18.7049 34.1641 18.5107 33.8236 18.4138C33.8046 18.086 33.5338 17.8257 33.2011 17.8257C32.8563 17.8257 32.5768 18.1054 32.5768 18.4502V18.491C31.8947 18.7445 31.156 19.3504 31.156 20.5167C31.156 21.9472 32.6429 22.4309 33.326 22.4328C33.5135 22.448 34.2559 22.7768 34.2559 23.3585C34.2559 23.7009 34.1378 23.9236 33.8725 24.0814Z" fill="#1F1C1C"/>
</svg>
