<svg width="60" height="60" viewBox="0 0 60 60" fill="none" xmlns="http://www.w3.org/2000/svg">
<rect width="60" height="60" fill="#FFEC87"/>
<g clip-path="url(#clip0)">
<path d="M43.2256 20.4832C40.7547 19.6485 38.7774 17.6878 37.9363 15.2381C37.8202 14.9003 37.5037 14.6733 37.1485 14.6733H23.8519C23.4968 14.6733 23.1802 14.9003 23.0641 15.2382C22.223 17.6878 20.2457 19.6485 17.7749 20.4831C17.4346 20.598 17.2061 20.9151 17.2061 21.2721V27.5754C17.2061 31.8708 18.5687 35.9563 21.1466 39.3901C23.4237 42.4233 26.6426 44.821 30.2105 46.1414C30.3973 46.2105 30.603 46.2105 30.7897 46.1414C33.8772 44.9988 36.6665 43.0871 38.856 40.613C39.0546 40.3887 39.0337 40.0458 38.8093 39.8472C38.5848 39.6486 38.242 39.6696 38.0435 39.8939C35.9926 42.2113 33.3859 44.007 30.5001 45.0914C27.16 43.8358 24.1491 41.5826 22.0143 38.7387C19.5785 35.4942 18.291 31.6339 18.291 27.5754V21.4522C20.9432 20.4996 23.0701 18.3898 24.0308 15.7583H36.9693C37.9301 18.3898 40.0569 20.4996 42.7092 21.4522V27.5754C42.7092 31.2765 41.6255 34.8497 39.5753 37.9085C39.4085 38.1574 39.475 38.4944 39.7239 38.6612C39.9728 38.8281 40.3098 38.7615 40.4766 38.5126C42.647 35.2745 43.7942 31.4925 43.7942 27.5754V21.2722C43.7943 20.9152 43.5657 20.598 43.2256 20.4832ZM28.8726 33.8751C28.8726 34.7725 29.6027 35.5026 30.5002 35.5026C31.3976 35.5026 32.1277 34.7725 32.1277 33.8751V32.4527C32.341 32.1323 32.4532 31.761 32.4532 31.3732C32.4532 30.8381 32.2301 30.3205 31.841 29.953C31.4463 29.5803 30.9296 29.3925 30.3862 29.4233C29.4258 29.4783 28.6384 30.2418 28.5547 31.1993C28.5158 31.6433 28.6285 32.0849 28.8726 32.4526V33.8751ZM29.6357 31.2937C29.6727 30.8694 30.0221 30.5311 30.4482 30.5067C30.4656 30.5056 30.4829 30.5051 30.5001 30.5051C30.7233 30.5051 30.9332 30.5881 31.096 30.7419C31.2716 30.9077 31.3682 31.1319 31.3682 31.3732C31.3682 31.5593 31.3101 31.7366 31.2003 31.8861C31.0972 32.0264 31.0427 32.1948 31.0427 32.3729V33.875C31.0427 34.1742 30.7994 34.4175 30.5002 34.4175C30.201 34.4175 29.9576 34.1742 29.9576 33.875V32.3729C29.9576 32.1948 29.9031 32.0264 29.7999 31.8859C29.7118 31.766 29.6118 31.5659 29.6357 31.2937ZM45.351 18.2248C42.6527 17.9503 40.4923 15.8103 40.2141 13.1363C40.1466 12.4885 39.6056 12 38.9554 12H22.0449C21.3948 12 20.8538 12.4885 20.7864 13.1363C20.5081 15.8102 18.3477 17.9503 15.6495 18.2248C15.0003 18.2909 14.5107 18.832 14.5107 19.4836V27.5754C14.5107 32.4086 16.0338 37.014 18.9152 40.8936C20.3015 42.7603 21.9627 44.3983 23.8525 45.762C25.7656 47.1427 27.8712 48.2115 30.1107 48.9388C30.3619 49.0204 30.6385 49.0204 30.8897 48.9388C33.1292 48.2115 35.2347 47.1426 37.1479 45.762C39.0377 44.3982 40.6988 42.7603 42.0851 40.8936C44.9666 37.014 46.4896 32.4086 46.4896 27.5754V19.4836C46.4896 18.832 46.0001 18.2908 45.351 18.2248ZM45.4046 27.5754C45.4046 32.1739 43.9555 36.5555 41.214 40.2467C38.5258 43.8663 34.8398 46.5151 30.5545 47.9069C30.5195 47.9182 30.4809 47.9182 30.4458 47.9069C26.1605 46.5151 22.4745 43.8663 19.7863 40.2467C17.0449 36.5555 15.5958 32.1739 15.5958 27.5754V19.4836C15.5958 19.3908 15.666 19.3137 15.7593 19.3043C18.9662 18.9781 21.5343 16.4312 21.8656 13.2486C21.8753 13.1554 21.9524 13.085 22.0449 13.085H38.9554C39.0479 13.085 39.125 13.1554 39.1347 13.2486C39.466 16.4312 42.0341 18.9781 45.2411 19.3043C45.3343 19.3138 45.4046 19.3909 45.4046 19.4836V27.5754ZM26.1011 21.1735C26.2607 20.9199 26.1844 20.585 25.9308 20.4254C25.6772 20.2658 25.3422 20.3422 25.1827 20.5957C24.5543 21.5946 24.2221 22.7477 24.2221 23.9304V26.9479C23.3938 27.4128 22.8325 28.2992 22.8325 29.3148V35.608C22.8325 37.1038 24.0494 38.3206 25.5451 38.3206H35.4552C36.951 38.3206 38.1678 37.1038 38.1678 35.608V29.3148C38.1678 28.2992 37.6066 27.4128 36.7782 26.9479V23.9304C36.7782 20.4687 33.9619 17.6524 30.5002 17.6524C29.3046 17.6524 28.1408 17.9913 27.1347 18.6324C26.8821 18.7935 26.8078 19.1288 26.9688 19.3815C27.1299 19.6342 27.4652 19.7085 27.7178 19.5474C28.5494 19.0175 29.5115 18.7374 30.5001 18.7374C33.3635 18.7374 35.6931 21.067 35.6931 23.9304V26.6132C35.6146 26.6064 35.5354 26.6022 35.4551 26.6022H34.6081V23.9304C34.6081 22.833 34.1807 21.8012 33.4044 21.0249C32.6281 20.2494 31.5966 19.8224 30.5001 19.8224C28.235 19.8224 26.3921 21.6652 26.3921 23.9303V26.6021H25.5451C25.4648 26.6021 25.3856 26.6063 25.3071 26.6132V23.9304C25.3071 22.9524 25.5817 21.9991 26.1011 21.1735ZM27.4772 23.9304C27.4772 22.2636 28.8333 20.9075 30.5002 20.9075C31.3072 20.9075 32.0662 21.2219 32.6375 21.7924C33.2086 22.3635 33.5231 23.1229 33.5231 23.9304V26.6022H27.4772V23.9304ZM25.5451 27.6872H35.4552C36.3527 27.6872 37.0828 28.4173 37.0828 29.3148V35.608C37.0828 36.5055 36.3527 37.2356 35.4552 37.2356H25.5451C24.6477 37.2356 23.9176 36.5055 23.9176 35.608V29.3148C23.9176 28.4173 24.6477 27.6872 25.5451 27.6872Z" fill="#1F1C1C"/>
</g>
<defs>
<clipPath id="clip0">
<rect width="37" height="37" fill="white" transform="translate(12 12)"/>
</clipPath>
</defs>
</svg>
