<svg aria-hidden="true" style="position: absolute; width: 0; height: 0; overflow: hidden;" version="1.1" xmlns="http://www.w3.org/2000/svg" xmlns:xlink="http://www.w3.org/1999/xlink">
<defs>
<symbol id="mailh" viewBox="0 0 32 32">
<path stroke-linejoin="round" stroke-linecap="round" stroke-miterlimit="4" stroke-width="2.4" d="M5.333 5.333h21.333c1.467 0 2.667 1.2 2.667 2.667v16c0 1.467-1.2 2.667-2.667 2.667h-21.333c-1.467 0-2.667-1.2-2.667-2.667v-16c0-1.467 1.2-2.667 2.667-2.667z"></path>
<path stroke-linejoin="round" stroke-linecap="round" stroke-miterlimit="4" stroke-width="2.4" d="M29.333 8l-13.333 9.333-13.333-9.333"></path>
</symbol>
<symbol id="telegram" viewBox="0 0 34 32">
<path d="M31.433 3.237c-0.402-0.316-0.887-0.523-1.404-0.599s-1.045-0.018-1.53 0.167l-25.3 9.647c-0.541 0.21-1.001 0.571-1.32 1.034s-0.481 1.007-0.465 1.559c0.016 0.552 0.209 1.087 0.554 1.533s0.826 0.782 1.378 0.965l5.118 1.681 2.852 8.909c0.039 0.119 0.096 0.232 0.168 0.336 0.011 0.016 0.027 0.027 0.038 0.044 0.083 0.109 0.184 0.206 0.298 0.287 0.032 0.024 0.065 0.046 0.099 0.067 0.134 0.084 0.282 0.145 0.438 0.181l0.018 0.001 0.008 0.004c0.094 0.018 0.19 0.027 0.287 0.027l0.025-0.004c0.145-0.002 0.288-0.026 0.425-0.069 0.032-0.011 0.059-0.027 0.090-0.040 0.102-0.040 0.2-0.091 0.289-0.152 0.072-0.057 0.143-0.115 0.215-0.172l3.815-3.977 5.689 4.163c0.501 0.368 1.117 0.569 1.752 0.569 0.665-0.001 1.31-0.217 1.826-0.614s0.872-0.949 1.009-1.563l4.607-21.356c0.104-0.48 0.068-0.979-0.104-1.441s-0.474-0.872-0.874-1.185zM13.228 19.648c-0.196 0.184-0.329 0.419-0.384 0.675l-0.438 2.005-1.107-3.457 5.739-2.823-3.81 3.6zM24.949 26.72l-6.724-4.92c-0.281-0.205-0.634-0.302-0.988-0.273s-0.683 0.184-0.922 0.433l-1.223 1.273 0.432-1.983 10-9.444c0.237-0.225 0.381-0.524 0.407-0.841s-0.071-0.632-0.27-0.888-0.489-0.437-0.816-0.509c-0.328-0.072-0.672-0.032-0.971 0.114l-14.351 7.056-5.259-1.817 25.382-9.588-4.697 21.387z"></path>
</symbol>
<symbol id="viber" viewBox="0 0 32 32">
<path d="M20.859 15.205c0.016-1.989-1.625-3.813-3.659-4.065l-0.133-0.020c-0.102-0.020-0.205-0.032-0.309-0.035-0.417 0-0.528 0.301-0.557 0.481-0.017 0.075-0.018 0.152-0.004 0.227s0.042 0.147 0.084 0.211c0.139 0.193 0.381 0.227 0.576 0.256 0.057 0.008 0.112 0.015 0.156 0.027 1.828 0.42 2.444 1.083 2.744 2.953 0.008 0.047 0.011 0.103 0.013 0.163 0.013 0.223 0.041 0.688 0.527 0.688 0.040 0 0.083-0.003 0.128-0.011 0.452-0.071 0.437-0.496 0.431-0.7-0.003-0.049-0.003-0.099 0-0.148 0.002-0.009 0.002-0.018 0.003-0.027l0.001-0.001z"></path>
<path d="M16.64 10.409c0.053 0.004 0.107 0.008 0.148 0.015 3 0.477 4.381 1.944 4.764 5.067 0.007 0.053 0.007 0.117 0.008 0.187 0.004 0.244 0.012 0.751 0.54 0.761h0.016c0.072 0.004 0.145-0.008 0.213-0.034s0.129-0.067 0.179-0.119c0.164-0.177 0.153-0.44 0.144-0.653-0.003-0.051-0.005-0.1-0.004-0.143 0.037-3.193-2.64-6.089-5.731-6.196l-0.037 0.001c-0.012 0.002-0.024 0.003-0.036 0.003-0.031 0-0.069-0.003-0.109-0.005-0.053-0.005-0.107-0.008-0.16-0.008-0.492 0-0.585 0.36-0.597 0.576-0.027 0.497 0.439 0.533 0.663 0.549zM21.406 19.525c-0.064-0.050-0.128-0.102-0.191-0.153-0.328-0.272-0.677-0.523-1.013-0.765-0.070-0.051-0.14-0.101-0.211-0.152-0.432-0.312-0.82-0.465-1.187-0.465-0.493 0-0.924 0.283-1.28 0.839-0.157 0.245-0.349 0.365-0.584 0.365-0.164-0.006-0.324-0.047-0.471-0.121-1.393-0.653-2.389-1.653-2.959-2.973-0.275-0.64-0.187-1.056 0.299-1.396 0.275-0.192 0.787-0.551 0.751-1.237-0.040-0.78-1.708-3.127-2.411-3.393-0.3-0.113-0.63-0.114-0.931-0.003-0.807 0.28-1.387 0.773-1.676 1.423-0.28 0.629-0.267 1.367 0.037 2.135 0.876 2.221 2.107 4.157 3.661 5.755 1.52 1.564 3.389 2.844 5.555 3.807 0.195 0.087 0.4 0.133 0.549 0.168l0.127 0.032c0.017 0.005 0.035 0.008 0.053 0.008h0.017c1.019 0 2.241-0.96 2.617-2.056 0.329-0.96-0.272-1.433-0.755-1.813v-0.001zM17.090 12.947c-0.173 0.004-0.537 0.013-0.665 0.395-0.059 0.179-0.052 0.333 0.021 0.46 0.108 0.187 0.316 0.244 0.504 0.275 0.683 0.113 1.035 0.504 1.104 1.227 0.033 0.339 0.253 0.573 0.536 0.573 0.021 0 0.043-0 0.064-0.003 0.34-0.043 0.504-0.3 0.489-0.767 0.005-0.488-0.241-1.040-0.661-1.48-0.421-0.443-0.929-0.692-1.392-0.68z"></path>
<path d="M8 5.333c-0.707 0-1.386 0.281-1.886 0.781s-0.781 1.178-0.781 1.886v16c0 0.707 0.281 1.386 0.781 1.886s1.178 0.781 1.886 0.781h16c0.707 0 1.385-0.281 1.885-0.781s0.781-1.178 0.781-1.886v-16c0-0.707-0.281-1.386-0.781-1.886s-1.178-0.781-1.885-0.781h-16zM8 2.667h16c1.414 0 2.771 0.562 3.771 1.562s1.562 2.357 1.562 3.771v16c0 1.415-0.562 2.771-1.562 3.771s-2.357 1.562-3.771 1.562h-16c-1.414 0-2.771-0.562-3.771-1.562s-1.562-2.357-1.562-3.771v-16c0-1.414 0.562-2.771 1.562-3.771s2.357-1.562 3.771-1.562z"></path>
</symbol>
</defs>
</svg>
